<?xml version="1.0" encoding="UTF-8"?>
<svg width="593px" height="282px" viewBox="0 0 593 282" version="1.1" xmlns="http://www.w3.org/2000/svg" xmlns:xlink="http://www.w3.org/1999/xlink">
    <title>Logo_text</title>
    <g id="Page-1" stroke="none" stroke-width="1" fill="none" fill-rule="evenodd">
        <g id="Artboard" transform="translate(-321.000000, -235.000000)">
            <g id="Logo_text" transform="translate(321.000000, 235.000000)">
                <g id="Group">
                    <path d="M235.32346,146 C240.141026,142.433584 244.668538,138.21782 248.760969,133.372689 C269.08643,109.315196 272.388713,77.299035 258.844518,54.8732364 C237.083789,46.2635546 210.015403,52.2042517 190,70.7339653 C214.709613,88.434512 231.267703,115.738742 235.32346,146" id="Fill-85" fill="#FEA926"></path>
                    <path d="M249,52.0541406 C229.332779,48.2337183 207.08993,54.8732224 190,70.7447194 C191.893893,72.1076088 193.741228,73.5271464 195.53868,75 C198.400304,74.4568436 200.586844,72.2608922 202.695234,70.2848692 C213.02435,59.1701561 229.010202,54.4466946 247.814446,54.6849504 L249,52.0541406" id="Fill-86" fill="#FEDAAF"></path>
                    <path d="M236.791105,141.073008 C237.840218,140.189285 238.86782,139.274119 239.872256,138.33082 C242.003578,136.325067 244.047198,134.170372 245.986569,131.873355 C255.595722,120.484254 261.228502,107.246617 262.904767,94.1827451 C264.564485,81.2330626 262.330568,68.4687301 256.219564,57.8938455 C246.118949,54.1107178 234.836841,53.6076247 223.736756,56.1677728 C214.928504,58.2000042 206.244358,62.1552427 198.359459,67.927574 L198.357804,67.927574 C196.800681,68.7186217 194.194445,71.2092635 189.339398,68.0516924 L189.145792,74.3817289 C188.818151,74.1417667 188.49051,73.9034595 188.159559,73.6668071 L188.159559,73.6651522 C188.010632,73.557583 187.869978,73.4334646 187.740907,73.2944521 C186.696757,72.1658024 186.764602,70.4066315 187.891489,69.3623823 C198.142686,59.8582255 210.197564,53.564597 222.485762,50.7313885 C234.989078,47.8468777 247.752191,48.5320111 259.143513,53.0466097 L259.143513,53.0499195 C259.691236,53.265058 260.177734,53.6572721 260.505375,54.200083 C267.637362,66.0260807 270.284967,80.3774733 268.423369,94.8943571 C266.618034,108.969379 260.563291,123.216513 250.24094,135.451274 C248.155951,137.922056 245.965057,140.232313 243.684807,142.377078 C241.351605,144.573146 238.943939,146.587173 236.484975,148.414195 C236.107692,148.707115 235.649325,148.909014 235.141316,148.97521 C233.615633,149.178764 232.215712,148.106382 232.013832,146.580553 C230.054604,131.951136 225.087035,118.039949 217.630716,105.641352 C211.744759,95.8542058 204.308297,87.0103587 195.579473,79.5020251 L197.022418,79.7568815 C197.052204,79.6824105 197.081989,79.6079395 197.11343,79.5334684 L200.394805,76.3130106 C209.062403,83.9835255 216.475698,92.9217026 222.396406,102.765116 C229.429107,114.460376 234.358617,127.431572 236.791105,141.073008" id="Fill-87" fill="#263240"></path>
                    <path d="M235.433043,146 C240.233943,142.438545 244.745792,138.228646 248.824065,133.390254 C269.079212,109.366228 272.370071,77.3946027 258.872731,55 C239.401676,57.8747693 221.837692,71.5951837 212,91.4359138 C224.49563,106.998575 232.736898,125.841698 235.433043,146" id="Fill-88" fill="#FE6E6E"></path>
                    <path d="M245.602393,137 C246.617827,135.93953 247.609685,134.844264 248.577968,133.714201 C268.986,109.918255 272.401091,78.2963751 259.006794,56 C249.192617,63.9634645 241.71579,74.9045291 238.172717,87.9151665 C233.447498,105.267102 236.65546,122.867584 245.602393,137" id="Fill-89" fill="#FCA29B"></path>
                    <path d="M243.65985,142.387363 C241.322691,144.580144 238.914308,146.591157 236.45292,148.413792 C236.075264,148.707926 235.616446,148.90787 235.106279,148.97562 C233.580749,149.177217 232.179447,148.106439 231.977368,146.582895 C230.67545,136.889712 228.041798,127.500578 224.232114,118.656747 C220.372737,109.702203 215.310826,101.31114 209.202079,93.7314216 L209.205392,93.7281168 C209.130854,93.633928 209.061286,93.5364343 209,93.4339834 L213.859833,92.4854859 C212.132223,90.0134435 210.868402,87.7297787 212.097439,84.9338591 C216.81151,77.1922023 222.731429,70.5543719 229.459664,65.3409403 C237.799561,58.878268 247.401623,54.586895 257.520477,53.0633501 C258.653444,52.8171374 259.865918,53.2979959 260.497,54.3423346 C267.636018,66.1506333 270.286234,80.4805474 268.422801,94.975705 C266.615685,109.029663 260.554974,123.255473 250.222446,135.471923 C248.135401,137.939008 245.940691,140.245807 243.65985,142.387363 Z M236.759351,141.083592 C237.811155,140.202844 238.838114,139.289048 239.841883,138.34716 C241.976963,136.344409 244.022598,134.192939 245.963881,131.899359 C255.582507,120.527303 261.22084,107.309478 262.898758,94.2651581 C264.518702,81.6603858 262.43497,69.2324241 256.66247,58.8319998 C248.14037,60.4150323 240.029054,64.1974554 232.88838,69.7281545 C225.58538,75.3877435 219.315964,82.858401 214.668148,91.6625733 C220.598006,99.267078 225.542314,107.606916 229.360281,116.467271 C232.739305,124.306422 235.237134,132.561986 236.759351,141.083592 L236.759351,141.083592 Z" id="Fill-90" fill="#263240"></path>
                    <path d="M38.5425038,93 C36.1717415,87.545745 34.3725467,81.6766361 33.2608895,75.4835776 C27.7357378,44.7248852 40.8221466,15.5646201 63.6367984,3 C86.6485995,6.38527425 106.991429,24.9120561 115,50.7642329 C84.9256137,53.7310171 57.0911089,68.9963198 38.5425038,93" id="Fill-91" fill="#FEA926"></path>
                    <path d="M73.2872732,6 C92.199146,12.4524515 108.128692,29.1098954 115,51.1030961 C112.681888,51.3297861 110.377061,51.6303967 108.088839,52 C105.885304,50.1224155 105.088246,47.1688748 104.249674,44.4387387 C100.855533,29.8468021 89.3828727,17.9169946 73,8.83263936 L73.2872732,6" id="Fill-92" fill="#FEDAAF"></path>
                    <path d="M117.271191,48.085605 L114.256301,53.6843338 C114.662504,53.6378437 115.068707,53.5963348 115.474909,53.5564862 L115.474909,53.5548258 C115.659698,53.5365619 115.844487,53.500034 116.027611,53.4435818 C117.504258,52.9869832 118.331646,51.4229255 117.873836,49.9501876 C117.680723,49.3242324 117.479287,48.7032584 117.271191,48.085605 Z M35.7759455,94.2585135 C34.5523432,91.4359041 33.4669163,88.4804661 32.5379774,85.4005011 C31.6306805,82.3919316 30.8832009,79.2870613 30.3105217,76.0941919 C27.4704325,60.2842587 29.3616056,44.8694907 34.8686486,31.7327345 C40.5454975,18.1858698 50.0712834,7.04420039 62.2340571,0.347808667 C62.7934182,0.039812172 63.4127108,-0.0568206905 64.0003729,0.0310122722 L64.0003729,0.0273594836 C76.1964419,1.82104473 87.6616791,7.62848053 97.1042267,16.4066297 C105.950788,24.6310493 113.031034,35.4801636 117.271191,48.085605 C111.452837,48.3944317 110.434001,44.9226222 109.476761,43.4532049 L109.475096,43.4532049 C105.509626,34.4822881 99.9326625,26.6879014 93.2802612,20.5024019 C84.8965043,12.7096755 74.8130221,7.48635384 64.1102473,5.70545336 C53.4674041,11.8296855 45.1002948,21.7978136 40.0344146,33.8828987 C34.9235858,46.0749109 33.1722529,60.4038045 35.8158999,75.1195615 C36.3502895,78.0882825 37.0478261,80.985608 37.8951915,83.7965949 C38.2947351,85.1215609 38.7309036,86.4315837 39.2003673,87.7266633 C48.181775,77.0937277 59.0010833,68.2954882 71.0106986,61.6640165 C81.1191523,56.080231 92.0749713,52.0339375 103.483606,49.7177374 L104.723856,54.162517 C104.712203,54.2422142 104.70055,54.3219114 104.690561,54.403269 L106.075646,54.9030369 C94.6936468,57.04822 83.7677935,61.0031939 73.7159419,66.5537722 C60.9838185,73.5853903 49.6567568,83.1806019 40.5937757,94.9077137 C39.6498539,96.1313979 37.8901972,96.3621877 36.6632653,95.4207645 C36.2537331,95.1069567 35.9557402,94.7034896 35.7759455,94.2585135 L35.7759455,94.2585135 Z" id="Fill-93" fill="#263240"></path>
                    <path d="M38.5283168,93 C36.1626954,87.545745 34.367402,81.6766361 33.2581554,75.4835776 C27.7449846,44.7248852 40.8030163,15.5646201 63.5681961,3 C78.9191117,15.1603441 87.2359819,35.7104892 85.8506634,57.6845255 C67.3439328,64.8643084 50.8755049,76.9876297 38.5283168,93" id="Fill-94" fill="#FE6E6E"></path>
                    <path d="M34.2403222,80 C33.8789352,78.5108015 33.5562081,76.9984377 33.2788646,75.4678726 C27.6882913,44.7523267 40.8848009,15.6302232 63.9228037,3 C68.4393012,14.764337 69.3906735,27.9826282 65.832272,41.0591145 C61.0871762,58.49101 49.2723417,72.1982547 34.2403222,80" id="Fill-95" fill="#FCA29B"></path>
                    <path d="M37.9039984,83.7989027 C38.3021967,85.1222149 38.7387153,86.4322442 39.2085559,87.7256698 C44.8316486,81.0725806 51.1694988,75.141751 58.065493,70.0128784 C65.8578498,64.2165384 74.3682964,59.4380032 83.3685768,55.7918381 C83.7584446,45.801412 82.0623533,36.1580025 78.5535434,27.5737409 C75.1230404,19.1822479 69.9647901,11.8249972 63.3370382,6.17593176 C53.0671884,12.3337335 44.9849299,22.1028328 40.0432728,33.8833002 C34.9283411,46.0753725 33.1756023,60.4043366 35.8213715,75.1201662 C36.3561901,78.0889018 37.0542867,80.9862416 37.9039984,83.7989027 Z M35.7813851,94.2575522 C34.5568005,91.4365893 33.4705023,88.4811366 32.5408176,85.4011565 C31.6327923,82.3942325 30.8847127,79.2876865 30.3115738,76.0948014 C27.4692046,60.2847902 29.3618959,44.8699463 34.8733598,31.7331254 C40.554766,18.1861939 50.0881989,7.04446956 62.2607366,0.348044835 C63.3387043,-0.244373985 64.6365974,-0.0555902969 65.4979719,0.7251141 C73.5452423,7.12317094 79.744806,15.6712365 83.7534463,25.4748714 C86.9856833,33.3835298 88.7950695,42.1253602 89,51.2258298 C88.6617814,54.2759233 86.4092121,55.6291222 83.6584785,56.9142459 L87.4138713,60.175206 C87.3072409,60.2316585 87.1989443,60.2831299 87.0856493,60.3279598 L87.0873154,60.3312805 C77.9454164,63.8678615 69.3050139,68.629793 61.429352,74.4892269 C53.650324,80.2756047 46.6243738,87.1246171 40.6030829,94.9084159 C39.6584033,96.1321061 37.8990001,96.3612367 36.6694172,95.4214692 C36.2595562,95.1076599 35.9629902,94.7025304 35.7813851,94.2575522 L35.7813851,94.2575522 Z" id="Fill-96" fill="#263240"></path>
                    <path d="M17.317253,128.266328 C11.5547926,135.10912 7.32932063,142.954148 5.00971431,151.613596 C3.94960769,155.571014 3.30656497,159.634805 3.08723256,163.726852 C1.85598021,186.691841 13.806273,207.788651 29.5915595,223.610011 C48.3428184,242.408161 73.4896107,255.279325 98.9903258,262.115469 C124.489379,268.948289 152.700179,270.379342 178.337146,263.478377 C199.916463,257.669399 220.811198,245.378301 231.222841,224.873193 C233.078858,221.221599 234.552705,217.378865 235.612812,213.421447 C237.932418,204.761999 238.194952,195.853238 236.624732,187.045865 C235.769003,182.247433 235.740756,178.02242 236.531682,173.212355 C245.73035,117.328165 210.843205,63.4351497 156.138048,48.7739227 C101.432891,34.1110336 44.2801841,63.3337627 24.3126274,116.332578 C22.5928619,120.893331 20.4576942,124.538278 17.317253,128.266328" id="Fill-97" fill="#FEA926"></path>
                    <path d="M200,72.3360831 C187.570574,61.4534849 172.494155,53.2105305 155.500035,48.7151174 C138.505915,44.2180678 121.274775,43.9153188 105,47.203009 C106.448636,51.1583834 108.914963,54.5999028 116.880801,53.5001876 C128.771547,52.4250197 141.30208,53.5263713 153.383436,56.512949 C165.358713,59.8906457 176.768791,65.1241117 186.52139,71.9236899 C192.8629,76.8085855 196.743056,75.0460955 200,72.3360831" id="Fill-98" fill="#FEDAAF"></path>
                    <path d="M17.2796178,128.314256 C11.532305,135.154701 7.31794032,142.997039 5.00443146,151.653517 C3.9471115,155.609577 3.30575911,159.671974 3.08700326,163.762617 C1.85898745,186.71973 13.777867,207.809303 29.5216594,223.625237 C48.2236276,242.416939 73.3043176,255.283688 98.738,262.117488 C124.170025,268.947964 152.306668,270.378526 177.876244,263.479927 C199.398837,257.672943 220.238647,245.386061 230.622921,224.887986 C232.474059,221.237644 233.944032,217.396228 235.001352,213.440167 C237.314861,204.783689 237.576705,195.877984 236.010612,187.073632 C235.889634,186.392412 235.785227,185.724484 235.697394,185.063202 L232.739218,183.662547 C232.962945,189.25852 232.374625,194.847847 230.909623,200.332498 C229.916936,204.044316 228.538111,207.648136 226.801322,211.074174 C217.056743,230.3095 197.501296,241.840394 177.304496,247.288492 C153.310956,253.761743 126.907788,252.420903 103.041856,246.009128 C79.1775808,239.597352 55.6414397,227.523144 38.0912542,209.891178 C23.3169479,195.047228 12.1322263,175.258619 13.2856663,153.715453 C13.4911642,149.879022 14.0927428,146.065851 15.0854303,142.354033 C16.5504317,136.869382 18.8307957,131.733648 21.8154873,127 L18.0469206,127.377163 C17.7983344,127.689528 17.5431192,128.00023 17.2796178,128.314256" id="Fill-99" fill="#E3892D"></path>
                    <path d="M5,182.951658 C8.97783917,198.342852 18.263893,212.289771 29.4931918,223.561117 C48.2363713,242.379972 73.3723287,255.265314 98.8620564,262.108988 C124.350123,268.949334 152.548768,270.381963 178.174689,263.473396 C193.524663,259.335245 208.527511,251.909201 219.653835,240.572963 C220.512517,238.707716 221.216735,236.760938 221.753204,234.750931 C227.181003,214.461177 214.38216,193.394375 193.170893,187.700465 C188.091882,186.336057 182.80858,185.941709 177.61995,186.555693 C171.909799,187.231242 166.550097,184.50908 163.827893,179.552284 C156.418649,166.061278 143.555031,156.064489 128.317997,151.974591 C113.080963,147.884693 96.9520292,150.097697 83.801077,158.071168 C78.9695388,160.999654 72.9703926,160.671864 68.3630749,157.2259 C64.1759632,154.09608 59.4025562,151.79156 54.3235448,150.428816 C33.112278,144.734906 11.5140231,156.568654 6.08788503,176.858409 C5.54975564,178.868415 5.18768093,180.906709 5,182.951658" id="Fill-100" fill="#FDF4D6"></path>
                    <path d="M5,183.175056 C8.97784825,198.525822 18.2639232,212.436106 29.4932476,223.677845 C48.23647,242.447269 73.3724847,255.298764 98.8622706,262.124462 C124.350395,268.94684 152.549104,270.375706 178.175084,263.485286 C193.525093,259.358005 208.527976,251.951467 219.654325,240.645006 C220.513008,238.784659 221.217229,236.842994 221.753698,234.838267 C223.187052,229.4962 223.348159,224.099369 222.421379,218.94483 C211.799943,233.535526 194.936856,242.653052 177.602074,247.313047 C153.555608,253.778623 127.094197,252.439373 103.17562,246.035199 C79.2587036,239.631025 55.6706448,227.571131 38.0817459,209.960068 C25.4007975,197.26291 15.3590144,180.941312 13.463931,163 C10.0806838,167.001156 7.51958071,171.755745 6.08788752,177.097812 C5.5497569,179.102539 5.18768136,181.135478 5,183.175056" id="Fill-101" fill="#CECBC2"></path>
                    <path d="M121.217291,178.428129 C129.636689,180.675119 138.220004,175.960232 139.764803,170.21994 C141.309601,164.479648 135.052589,160.551125 126.633191,158.305784 C118.213793,156.058794 110.820949,156.345644 109.276151,162.085936 C107.731353,167.826228 112.797893,176.182788 121.217291,178.428129" id="Fill-102" fill="#263240"></path>
                    <path d="M124.642139,163.840057 C129.058148,165.045321 132.826703,165.297505 132.994118,164.660958 C133.161534,164.024412 129.734643,162.476526 125.318634,161.271262 C120.902626,160.067737 117.173362,159.662504 117.005946,160.29905 C116.838531,160.935596 120.226131,162.636532 124.642139,163.840057" id="Fill-103" fill="#FFFFFF"></path>
                    <path d="M135,190.016704 L130.181167,207.921518 C127.850166,216.57973 118.828267,221.766768 110.131586,219.446078 C101.434904,217.127031 96.2264706,208.14504 98.5558209,199.486828 L103.374654,181.580371 C104.196778,181.9551 105.060172,182.267374 105.959886,182.507332 C110.328037,183.672608 114.757269,182.964238 118.38749,180.876932 C119.321871,180.341135 120.203426,179.711656 121.017295,179 C121.365624,180.020643 121.813005,181.005129 122.352833,181.935377 C124.447763,185.54954 127.929407,188.368225 132.297557,189.5335 C133.19562,189.773458 134.100286,189.932883 135,190.016704" id="Fill-104" fill="#263240"></path>
                    <path d="M103.376707,201.315586 C101.793607,207.082565 105.348463,213.088133 111.258704,214.632422 C117.17062,216.17671 123.325446,212.71064 124.910221,206.943661 C126.056085,202.771629 127.612381,196.221884 121.817731,194.70701 C119.897908,194.20532 117.736851,195.357409 115.952722,197.543926 C115.528886,194.780547 114.249004,192.728032 112.327506,192.226343 C106.534531,190.711469 104.524245,197.143554 103.376707,201.315586" id="Fill-105" fill="#FE6E6E"></path>
                    <path d="M107.738671,225.860073 C112.692511,227.130414 116.377396,229.340548 115.969094,230.798847 C115.560791,232.255527 111.213475,232.409458 106.259635,231.139117 C101.307489,229.870397 97.6226045,227.658643 98.0309066,226.201963 C98.4392087,224.743664 102.786525,224.591353 107.738671,225.860073" id="Fill-106" fill="#CECBC2"></path>
                    <path d="M187.219176,146.566926 C192.058635,147.181065 196.936043,145.559407 201,142.317752 C198.145495,143.111152 195.16229,143.184185 192.238485,142.395764 C188.656329,141.429741 185.636824,139.298514 183.35817,136.400444 L183.35652,136.400444 L183.35652,136.402104 C181.016816,133.069158 177.76796,130.612604 173.844254,129.55529 C163.485536,126.763449 152.351317,134.772147 148.975411,147.443318 C145.601155,160.116149 151.262315,172.652874 161.621033,175.444715 C171.9781,178.236555 183.112319,170.227857 186.488225,157.555026 C187.488127,153.797162 187.694377,150.050917 187.219176,146.566926" id="Fill-107" fill="#263240"></path>
                    <path d="M163.03583,138.117003 C159.385636,137.162153 154.840821,142.15637 152.887678,149.270255 C150.934534,156.385807 152.31232,162.928115 155.962513,163.882966 C159.614414,164.837816 164.157521,159.845265 166.112372,152.729713 C168.065516,145.614162 166.68773,139.071854 163.03583,138.117003" id="Fill-108" fill="#FFFFFF"></path>
                    <path d="M176.583688,162.094849 C178.421879,162.569327 179.426141,164.703622 178.826423,166.860186 C178.228478,169.016749 176.253665,170.380231 174.415474,169.905753 C172.579057,169.429562 171.574794,167.295267 172.172738,165.138703 C172.772457,162.98214 174.747271,161.618658 176.583688,162.094849" id="Fill-109" fill="#FFFFFF"></path>
                    <path d="M79.9409693,117.600002 C75.3912311,115.69986 71.9317604,111.84652 70,107 C72.1020625,109.120664 74.6816389,110.684218 77.6385513,111.47014 C81.2633152,112.435133 84.9832479,112.108494 88.4377097,110.745566 L88.4377097,110.747224 C92.164321,109.041076 96.2465631,108.546973 100.21861,109.60316 C110.698869,112.393681 116.427365,124.917037 113.012974,137.574696 C109.596914,150.234012 98.3302597,158.23417 87.8483308,155.445307 C77.3680714,152.656443 71.6395754,140.133088 75.0556357,127.473771 C76.0674307,123.719915 77.7721216,120.3756 79.9409693,117.600002" id="Fill-110" fill="#263240"></path>
                    <path d="M105.037287,122.117001 C108.687665,123.073505 110.06552,129.614059 108.112278,136.729516 C106.159036,143.844973 101.613992,148.839124 97.9636145,147.88262 C94.3115299,146.927782 92.9353821,140.387228 94.8869168,133.271771 C96.8418662,126.156314 101.385203,121.162163 105.037287,122.117001" id="Fill-111" fill="#FFFFFF"></path>
                    <path d="M80.5842936,136.094247 C78.7459252,135.619769 76.7709214,136.983251 76.1729194,139.139814 C75.5749173,141.296378 76.5775024,143.430673 78.4158707,143.905151 C80.2524645,144.381342 82.2274684,143.01786 82.8272449,140.861297 C83.425247,138.703021 82.4208874,136.570438 80.5842936,136.094247" id="Fill-112" fill="#FFFFFF"></path>
                    <path d="M108.520637,89.7067713 C112.949126,94.1351625 112.784504,98.364708 110.07395,101.075203 C107.365025,103.784068 103.135386,103.948686 98.7068972,99.5219246 C94.2784083,95.0935335 91.3298855,87.7509121 94.0404402,85.0404172 C96.7509949,82.3299224 104.093778,85.2783801 108.520637,89.7067713" id="Fill-113" fill="#FDF4D6"></path>
                    <path d="M175.516923,106.739905 C169.264981,108.397232 167.226488,112.22876 168.252474,116.016937 C169.278459,119.803446 172.979756,122.1127 179.231698,120.455373 C185.483639,118.796378 191.917528,113.799386 190.891543,110.012876 C189.867242,106.224699 181.768864,105.082577 175.516923,106.739905" id="Fill-114" fill="#FDF4D6"></path>
                    <path d="M189.277401,67.4673332 L189.277401,67.4656754 C194.140644,70.6286697 196.75128,68.135408 198.311032,67.3430016 C186.290502,57.544019 172.091956,50.0940734 156.275644,45.855197 C140.457674,41.6163205 124.435826,40.9681388 109.128381,43.4431652 C110.083128,44.9102773 111.097547,48.373325 116.890673,48.0666405 L116.889016,48.0682983 C129.320617,46.8830043 142.140084,47.8544481 154.826948,51.2545011 C167.515469,54.6545541 179.105036,60.2229491 189.277401,67.4673332 Z M19.2014925,129.6331 C16.4300742,132.923742 14.0299464,136.459731 12.0491779,140.217858 C10.1231085,143.86989 8.58987765,147.755665 7.49258164,151.851974 C6.97708457,153.773311 6.5709856,155.67807 6.27262717,157.556305 C5.96763855,159.474326 5.76376029,161.413898 5.65767729,163.366732 C5.10902928,173.613309 7.32351186,183.495179 11.3861592,192.670846 C16.0438658,203.195925 23.1348512,212.797635 31.2883241,220.968703 C40.129679,229.829397 50.4363052,237.347311 61.5402115,243.505866 L61.5501568,243.509182 C73.4679186,250.120304 86.3155642,255.169822 99.2659776,258.641158 C112.218049,262.110837 125.866289,264.163136 139.494639,264.396879 L139.504585,264.400195 C152.199736,264.617361 164.883284,263.261318 176.970116,260.008805 C188.115461,257.009929 199.056928,252.240571 208.354108,245.455385 C216.459512,239.540519 223.316783,232.088916 227.964545,222.94143 C228.848017,221.197473 229.641982,219.41373 230.336494,217.600148 C231.017746,215.826351 231.61612,213.972982 232.131617,212.049988 C233.228913,207.955336 233.843863,203.824214 234.002988,199.698064 C234.165427,195.452557 233.855466,191.190472 233.099625,186.953253 C232.645457,184.408601 232.411743,182.0032 232.395167,179.584538 C232.380249,177.164217 232.580813,174.760474 233.000172,172.21748 C237.468918,145.063473 231.233227,118.395187 217.235244,96.7300031 C216.166126,95.0755648 215.050597,93.4509661 213.891972,91.856207 L213.89363,91.856207 C211.762024,88.799309 210.333219,86.0275446 213.421229,82.2246574 C216.491005,85.8750313 219.325411,89.7110736 221.909526,93.7095757 C236.638487,116.50369 243.200715,144.561173 238.498255,173.124271 C238.128622,175.377159 237.949607,177.47919 237.962867,179.561329 C237.976128,181.645126 238.183321,183.740526 238.58279,185.98181 C239.409906,190.618547 239.749703,195.281808 239.570688,199.923519 C239.394988,204.503893 238.725339,209.04448 237.531905,213.497207 C236.991545,215.518009 236.326868,217.550415 235.547821,219.586137 C234.77872,221.590361 233.910165,223.548168 232.943815,225.45127 C227.866749,235.445867 220.421049,243.550626 211.647654,249.956186 C201.757072,257.174046 190.180764,262.230195 178.422127,265.394847 C165.814826,268.786612 152.605835,270.202333 139.400159,269.976879 L139.400159,269.978536 C125.282833,269.736504 111.175452,267.619553 97.8189392,264.040462 C84.4624268,260.461372 71.1871341,255.239448 58.8400677,248.389609 L58.8417253,248.387951 C47.2919389,241.980733 36.5609806,234.149504 27.3400475,224.907526 C18.7373794,216.285549 11.2402951,206.118545 6.28257245,194.922076 C1.88510068,184.987157 -0.510054511,174.244913 0.0916349927,163.050101 C0.206005725,160.919888 0.431432095,158.788016 0.767914104,156.667749 C1.10936875,154.515985 1.55193376,152.4239 2.09229403,150.404755 C3.28572776,145.950371 4.97476799,141.683313 7.11300342,137.628447 C9.27941714,133.520533 11.9049713,129.651336 14.9399396,126.049037 C16.405211,124.308395 17.6317957,122.595936 18.6859955,120.79893 C19.7385377,119.001925 20.6352706,117.092193 21.4391808,114.957006 C31.6480118,87.8676514 51.3579013,66.8523065 75.5083588,54.4771745 C79.1831401,52.5939661 82.9606894,50.911346 86.8227735,49.4376029 L88.6013213,48.7761592 C89.3737381,53.6134847 86.7531565,55.2977626 83.3783912,56.8809175 C81.5782953,57.6816125 79.7997475,58.5320402 78.046063,59.4305428 C55.0940119,71.1923059 36.3587599,91.1698969 26.6554807,116.919787 C25.747145,119.331818 24.719466,121.51508 23.4961964,123.60385 C22.2729268,125.689304 20.8673271,127.6554 19.2014925,129.6331 L19.2014925,129.6331 Z" id="Fill-115" fill="#263240"></path>
                    <path d="M119.714286,183.655166 C118.882725,184.384077 117.982976,185.026648 117.030007,185.576237 C113.326233,187.711498 108.805866,188.437088 104.350361,187.243268 C101.496442,186.481149 99.0050847,185.010044 97.0143271,183.067388 C96.1977339,182.391609 95.8035739,181.279148 96.0962834,180.189933 C96.4954329,178.698903 98.0304949,177.813915 99.5256421,178.212409 C100.097756,178.366825 100.581725,178.68562 100.937633,179.105698 C102.241521,180.370915 103.891339,181.332281 105.79894,181.843681 C108.762625,182.635687 111.767887,182.154174 114.229308,180.736201 C116.692393,179.316568 118.611636,176.958814 119.406609,174 L122.110846,174.72393 L124.816746,175.44786 C124.021774,178.406674 124.504079,181.405338 125.926049,183.864375 C127.346356,186.321752 129.70799,188.239502 132.671674,189.031507 C134.580939,189.542907 136.490203,189.531285 138.253113,189.089621 C138.772007,188.901997 139.350774,188.867129 139.922888,189.019885 C141.418035,189.420039 142.30448,190.952578 141.903667,192.443608 C141.610957,193.534484 140.712871,194.299924 139.666767,194.477585 C136.969182,195.166647 134.075349,195.196534 131.223094,194.432755 C126.765926,193.240595 123.215159,190.356498 121.076384,186.658811 C120.52589,185.707407 120.068531,184.701211 119.714286,183.655166" id="Fill-116" fill="#263240"></path>
                    <path d="M154.877385,53.2009846 C169.702677,57.1970595 180.432721,65.2704237 178.844062,71.2338735 C177.255402,77.1989808 163.949554,78.7950903 149.122615,74.7990154 C134.297323,70.8045979 123.567279,62.7295763 125.155938,56.7661265 C126.744598,50.8010192 140.052094,49.2049097 154.877385,53.2009846" id="Fill-117" fill="#FEDAAF"></path>
                </g>
                <g id="Group-3" transform="translate(279.000000, 66.000000)">
                    <path d="M187.98,73.44 C191.4,73.44 191.4,73.44 194.55,74.07 C197.7,74.7 197.7,74.7 200.31,76.32 C202.92,77.94 202.92,77.94 204.54,80.55 C206.16,83.16 206.16,83.16 206.34,86.94 C206.7,88.02 206.7,88.02 206.34,89.28 C206.16,91.98 206.16,91.98 205.98,95.76 C205.8,99.54 205.8,99.54 205.71,103.68 C205.62,107.82 205.62,107.82 205.71,111.96 C205.8,116.1 205.8,116.1 206.16,119.88 C206.52,124.56 206.52,124.56 207.33,127.71 C208.14,130.86 208.14,130.86 209.76,130.86 C210.66,130.86 210.66,130.86 211.38,129.96 C212.46,128.88 212.46,128.88 213.18,126.18 C213.9,123.48 213.9,123.48 214.35,119.7 C214.8,115.92 214.8,115.92 214.98,111.6 L214.98,111.6 L215.34,102.96 L215.418889,101.648889 C215.73,96.44 215.73,96.44 215.97,91.8 C216.24,86.58 216.24,86.58 217.14,83.34 C218.22,79.38 218.22,79.38 221.28,77.67 C224.34,75.96 224.34,75.96 228.3,75.96 C230.28,75.96 230.28,75.96 232.26,76.32 C234.24,76.68 234.24,76.68 236.22,77.22 C241.44,78.66 241.44,78.66 244.59,80.73 C247.74,82.8 247.74,82.8 249.18,88.56 C250.44,93.06 250.44,93.06 250.8,99.18 C251.7,109.62 251.7,109.62 250.26,122.04 C249.18,130.32 249.18,130.32 246.57,139.05 C243.96,147.78 243.96,147.78 239.19,154.89 C234.42,162 234.42,162 227.31,166.5 C220.2,171 220.2,171 210.12,171 C196.8,171 196.8,171 187.53,164.25 C178.26,157.5 178.26,157.5 173.58,145.26 C169.98,136.62 169.98,136.62 168.99,126.99 C168,117.36 168,117.36 168.36,108.9 C168.54,104.76 168.54,104.76 169.17,98.73 C169.8,92.7 169.8,92.7 171.69,87.12 C173.58,81.54 173.58,81.54 177,77.58 C180.42,73.62 180.42,73.62 186,73.62 C186.72,73.44 186.72,73.44 187.98,73.44 Z M90.96,72.9 C97.8,72.9 97.8,72.9 102.57,75.24 C107.34,77.58 107.34,77.58 108.6,85.32 C112.2,80.46 112.2,80.46 117.24,78.21 C122.28,75.96 122.28,75.96 127.86,75.96 C136.14,75.96 136.14,75.96 142.98,80.1 C148.92,83.7 148.92,83.7 153.06,90.09 C157.2,96.48 157.2,96.48 159.72,104.31 C162.24,112.14 162.24,112.14 163.05,120.87 C163.86,129.6 163.86,129.6 163.14,137.79 C162.42,145.98 162.42,145.98 159.99,153.09 C157.56,160.2 157.56,160.2 153.78,164.7 C151.8,167.22 151.8,167.22 148.92,168.66 C146.04,170.1 146.04,170.1 142.98,170.64 L142.98,170.64 L142.8,170.82 L142.4436,170.8848 C141.738,171 141.738,171 141.09,171 L141.09,171 L139.38,171 L138.8764,170.9936 C135.354,170.904 135.354,170.904 131.91,169.56 C128.22,168.12 128.22,168.12 125.88,165.06 C123.18,161.46 123.18,161.46 123.72,156.96 L123.72,156.96 L123.72,155.52 L123.757645,155.077729 C124.094211,151.038947 124.094211,151.038947 124.35,144.9 C124.62,138.42 124.62,138.42 123.9,132.12 C123.72,129.6 123.72,129.6 122.64,127.26 C121.56,124.92 121.56,124.92 119.94,123.12 C118.32,121.32 118.32,121.32 116.43,120.15 C114.54,118.98 114.54,118.98 112.56,118.98 C110.58,118.98 110.58,118.98 108.78,120.15 C106.98,121.32 106.98,121.32 105.54,124.38 C104.46,126.72 104.46,126.72 104.01,129.78 C103.56,132.84 103.56,132.84 103.56,136.08 C103.56,139.32 103.56,139.32 103.83,142.65 C104.1,145.98 104.1,145.98 104.28,148.86 C104.64,152.28 104.64,152.28 104.73,155.07 C104.82,157.86 104.82,157.86 104.46,159.84 C104.1,162.36 104.1,162.36 102.48,164.16 C100.86,165.96 100.86,165.96 98.7,167.04 C96.54,168.12 96.54,168.12 94.02,168.57 C91.5,169.02 91.5,169.02 89.34,169.02 C84.84,169.02 84.84,169.02 80.43,167.22 C76.02,165.42 76.02,165.42 73.86,161.28 C70.8,155.16 70.8,155.16 69.45,146.16 C68.1,137.16 68.1,137.16 68.01,127.53 C67.92,117.9 67.92,117.9 68.73,108.72 C69.54,99.54 69.54,99.54 70.62,93.06 C72.06,83.52 72.06,83.52 76.56,78.21 C81.06,72.9 81.06,72.9 90.96,72.9 Z M32.82,32.76 C41.82,32.76 41.82,32.76 47.49,37.35 C53.16,41.94 53.16,41.94 56.31,48.87 C59.46,55.8 59.46,55.8 60.63,63.9 C61.8,72 61.8,72 61.98,79.02 C62.34,89.28 62.34,89.28 61.8,99.72 C61.26,110.16 61.26,110.16 60.36,118.62 C59.46,127.98 59.46,127.98 58.65,135.9 C57.84,143.82 57.84,143.82 56.31,150.03 C54.78,156.24 54.78,156.24 52.17,160.74 C49.56,165.24 49.56,165.24 44.88,167.76 C39.48,171 39.48,171 30.12,171 C24,171 24,171 19.59,169.02 C15.18,167.04 15.18,167.04 11.94,161.46 C8.88,156.24 8.88,156.24 7.08,148.05 C5.28,139.86 5.28,139.86 4.47,130.23 C3.66,120.6 3.66,120.6 3.75,110.16 C3.84,99.72 3.84,99.72 4.47,89.91 C5.1,80.1 5.1,80.1 6,71.64 C6.9,63.18 6.9,63.18 7.98,57.42 C8.88,52.74 8.88,52.74 10.86,48.33 C12.84,43.92 12.84,43.92 15.99,40.41 C19.14,36.9 19.14,36.9 23.37,34.83 C27.6,32.76 27.6,32.76 32.82,32.76 Z M136.14,83.16 C133.62,83.16 133.62,83.16 132.27,85.86 C130.92,88.56 130.92,88.56 132.36,94.5 C132.9,97.02 132.9,97.02 134.7,100.17 C136.5,103.32 136.5,103.32 139.02,106.2 C141.54,109.08 141.54,109.08 144.42,110.97 C147.3,112.86 147.3,112.86 150.18,112.86 C152.34,112.86 152.34,112.86 153.51,111.15 C154.68,109.44 154.68,109.44 154.32,105.66 C153.78,99.36 153.78,99.36 150.45,94.14 C147.12,88.92 147.12,88.92 142.98,86.04 C139.2,83.16 139.2,83.16 136.14,83.16 Z M188.34,76.5 C186.36,76.5 186.36,76.5 184.56,77.4 C182.76,78.3 182.76,78.3 181.32,79.56 C178.26,81.9 178.26,81.9 176.1,86.13 C173.94,90.36 173.94,90.36 173.13,94.41 C172.32,98.46 172.32,98.46 172.95,101.52 C173.58,104.58 173.58,104.58 176.1,104.58 C177.72,104.58 177.72,104.58 179.79,103.14 C181.86,101.7 181.86,101.7 183.3,100.62 C186.54,97.92 186.54,97.92 188.52,95.13 C190.5,92.34 190.5,92.34 191.58,90 C192.84,87.3 192.84,87.3 193.56,84.6 C194.46,82.08 194.46,82.08 193.11,79.29 C191.76,76.5 191.76,76.5 188.34,76.5 Z M38.4,36.9 C34.98,36.9 34.98,36.9 33.99,40.14 C33,43.38 33,43.38 33.9,46.08 C34.62,48.96 34.62,48.96 36.06,51.84 C37.32,54.36 37.32,54.36 39.39,57.51 C41.46,60.66 41.46,60.66 44.88,63.72 C46.32,64.98 46.32,64.98 48.84,66.69 C51.36,68.4 51.36,68.4 53.34,68.4 C56.04,68.4 56.04,68.4 56.4,64.98 C56.76,61.56 56.76,61.56 55.5,56.97 C54.24,52.38 54.24,52.38 51.63,47.61 C49.02,42.84 49.02,42.84 45.6,40.14 C44.16,39.06 44.16,39.06 42.18,37.98 C40.2,36.9 40.2,36.9 38.4,36.9 Z M95.8118519,10.0807407 C97.0533333,10.0866667 97.0533333,10.0866667 98.84,10.14 C100.85,10.2 100.85,10.2 103.1,10.41 C105.35,10.62 105.35,10.62 107.66,10.98 C109.97,11.34 109.97,11.34 111.95,12 C113.93,12.66 113.93,12.66 115.4,13.65 C116.87,14.64 116.87,14.64 117.41,16.02 L117.41,16.02 L117.41,16.14 L117.525537,16.4630579 C118.080909,18.1118182 118.080909,18.1118182 118.19,20.43 C118.31,22.98 118.31,22.98 117.89,25.44 C117.41,28.02 117.41,28.02 116.48,29.97 C115.55,31.92 115.55,31.92 114.17,32.4 C113.15,32.76 113.15,32.76 111.92,32.91 C110.69,33.06 110.69,33.06 109.49,33.06 C108.47,33.06 108.47,33.06 107.45,32.97 C106.43,32.88 106.43,32.88 105.41,32.76 C105.35,33.6 105.35,33.6 105.2,35.37 C105.05,37.14 105.05,37.14 104.81,39.33 C104.57,41.52 104.57,41.52 104.27,43.89 C103.97,46.26 103.97,46.26 103.64,48.36 C103.31,50.46 103.31,50.46 102.92,52.05 C102.53,53.64 102.53,53.64 102.11,54.24 C101.57,55.02 101.57,55.02 100.58,55.56 C99.59,56.1 99.59,56.1 98.42,56.43 C97.25,56.76 97.25,56.76 96.08,56.88 C94.91,57 94.91,57 94.01,57 C93.17,57 93.17,57 92.21,56.91 C91.25,56.82 91.25,56.82 90.32,56.55 C89.39,56.28 89.39,56.28 88.55,55.86 C87.71,55.44 87.71,55.44 87.11,54.78 C86.45,54 86.45,54 86.15,52.32 C85.85,50.64 85.85,50.64 85.85,48.45 C85.85,46.26 85.85,46.26 86.06,43.77 C86.27,41.28 86.27,41.28 86.54,38.97 C86.81,36.66 86.81,36.66 87.11,34.77 C87.41,32.88 87.41,32.88 87.59,31.8 C86.99,31.92 86.99,31.92 86.09,32.04 C85.19,32.16 85.19,32.16 84.05,32.16 C82.67,32.16 82.67,32.16 81.08,31.92 C79.49,31.68 79.49,31.68 77.81,31.02 C76.67,30.54 76.67,30.54 75.86,29.7 C75.05,28.86 75.05,28.86 74.54,27.78 C74.03,26.7 74.03,26.7 73.76,25.5 C73.49,24.3 73.49,24.3 73.37,23.22 C73.19,21.12 73.19,21.12 73.43,19.05 C73.67,16.98 73.67,16.98 74.21,15.42 C74.69,14.1 74.69,14.1 75.29,13.32 C75.83,12.6 75.83,12.6 77.33,12.09 C78.83,11.58 78.83,11.58 80.81,11.22 C82.79,10.86 82.79,10.86 85.01,10.65 C87.23,10.44 87.23,10.44 89.3,10.29 C91.37,10.14 91.37,10.14 93.05,10.11 C94.4245455,10.0854545 94.4245455,10.0854545 95.1966116,10.0809917 Z M141.23,22.86 C144.05,22.86 144.05,22.86 146.51,23.58 C148.97,24.3 148.97,24.3 150.86,25.74 C152.75,27.18 152.75,27.18 153.98,29.4 C155.21,31.62 155.21,31.62 155.57,34.62 C156.05,38.52 156.05,38.52 154.73,42.6 C152.51,50.04 152.51,50.04 147.29,53.52 C142.07,57 142.07,57 134.63,57 C132.35,57 132.35,57 130.19,56.55 C128.03,56.1 128.03,56.1 126.2,55.08 C124.37,54.06 124.37,54.06 122.96,52.44 C121.55,50.82 121.55,50.82 120.83,48.48 C120.41,47.16 120.41,47.16 120.2,45.66 C119.99,44.16 119.99,44.16 120.11,42.42 C120.23,38.46 120.23,38.46 121.25,35.52 C122.27,32.58 122.27,32.58 123.83,30.48 C125.39,28.38 125.39,28.38 127.31,27 C129.23,25.62 129.23,25.62 131.15,24.78 C133.07,23.94 133.07,23.94 134.84,23.55 C136.61,23.16 136.61,23.16 137.87,23.04 C138.41,22.98 138.41,22.98 138.92,22.95 C139.43,22.92 139.43,22.92 139.97,22.92 C140.27,22.92 140.27,22.92 140.6,22.89 C140.93,22.86 140.93,22.86 141.23,22.86 Z M185.15,14.94 C186.89,14.94 186.89,14.94 188.57,15.48 C189.89,15.96 189.89,15.96 190.4,16.74 C190.91,17.52 190.91,17.52 191.39,18.78 C192.41,21.42 192.41,21.42 192.98,25.02 C193.55,28.62 193.55,28.62 193.52,32.58 C193.49,36.54 193.49,36.54 192.8,40.47 C192.11,44.4 192.11,44.4 190.58,47.73 C189.05,51.06 189.05,51.06 186.59,53.43 C184.13,55.8 184.13,55.8 180.65,56.58 C178.73,57 178.73,57 176.51,57 C173.45,57 173.45,57 170.51,56.1 C167.57,55.2 167.57,55.2 165.05,53.46 C162.65,51.78 162.65,51.78 160.82,49.53 C158.99,47.28 158.99,47.28 158.09,44.58 C157.19,41.88 157.19,41.88 157.34,38.91 C157.49,35.94 157.49,35.94 159.05,32.82 C160.61,29.64 160.61,29.64 163.58,27.6 C166.55,25.56 166.55,25.56 170.15,25.56 C172.07,25.56 172.07,25.56 173.93,26.16 C175.79,26.76 175.79,26.76 177.41,27.84 C177.23,26.82 177.23,26.82 177.08,25.65 C176.93,24.48 176.93,24.48 176.9,23.31 C176.87,22.14 176.87,22.14 176.96,21.06 C177.05,19.98 177.05,19.98 177.35,19.2 C177.71,18.12 177.71,18.12 178.58,17.31 C179.45,16.5 179.45,16.5 180.56,15.96 C181.67,15.42 181.67,15.42 182.87,15.18 C184.07,14.94 184.07,14.94 185.15,14.94 Z M223.01,14.94 C224.75,14.94 224.75,14.94 226.43,15.48 C227.75,15.96 227.75,15.96 228.26,16.74 C228.77,17.52 228.77,17.52 229.25,18.78 C230.27,21.42 230.27,21.42 230.84,25.02 C231.41,28.62 231.41,28.62 231.38,32.58 C231.35,36.54 231.35,36.54 230.66,40.47 C229.97,44.4 229.97,44.4 228.44,47.73 C226.91,51.06 226.91,51.06 224.45,53.43 C221.99,55.8 221.99,55.8 218.51,56.58 C216.59,57 216.59,57 214.37,57 C211.31,57 211.31,57 208.37,56.1 C205.43,55.2 205.43,55.2 202.91,53.46 C200.51,51.78 200.51,51.78 198.68,49.53 C196.85,47.28 196.85,47.28 195.95,44.58 C195.05,41.88 195.05,41.88 195.2,38.91 C195.35,35.94 195.35,35.94 196.91,32.82 C198.47,29.64 198.47,29.64 201.44,27.6 C204.41,25.56 204.41,25.56 208.01,25.56 C209.93,25.56 209.93,25.56 211.79,26.16 C213.65,26.76 213.65,26.76 215.27,27.84 C215.09,26.82 215.09,26.82 214.94,25.65 C214.79,24.48 214.79,24.48 214.76,23.31 C214.73,22.14 214.73,22.14 214.82,21.06 C214.91,19.98 214.91,19.98 215.21,19.2 C215.57,18.12 215.57,18.12 216.44,17.31 C217.31,16.5 217.31,16.5 218.42,15.96 C219.53,15.42 219.53,15.42 220.73,15.18 C221.93,14.94 221.93,14.94 223.01,14.94 Z M240.65,11.1 C242.15,11.1 242.15,11.1 243.32,11.76 C244.49,12.42 244.49,12.42 245.36,13.47 C246.23,14.52 246.23,14.52 246.8,15.81 C247.37,17.1 247.37,17.1 247.61,18.42 C247.97,20.4 247.97,20.4 248.15,23.16 C248.33,25.92 248.33,25.92 248.3,29.04 C248.27,32.16 248.27,32.16 248.03,35.43 C247.79,38.7 247.79,38.7 247.34,41.82 C246.89,44.94 246.89,44.94 246.26,47.64 C245.63,50.34 245.63,50.34 244.79,52.32 C244.43,53.16 244.43,53.16 243.92,54 C243.41,54.84 243.41,54.84 242.72,55.5 C242.03,56.16 242.03,56.16 241.22,56.58 C240.41,57 240.41,57 239.39,57 C238.31,57 238.31,57 237.05,56.46 C235.55,55.8 235.55,55.8 234.71,53.13 C233.87,50.46 233.87,50.46 233.51,46.71 C233.15,42.96 233.15,42.96 233.18,38.61 C233.21,34.26 233.21,34.26 233.39,30.3 C233.57,26.34 233.57,26.34 233.87,23.22 C234.17,20.1 234.17,20.1 234.29,18.78 C234.47,16.86 234.47,16.86 235.04,15.42 C235.61,13.98 235.61,13.98 236.48,13.02 C237.35,12.06 237.35,12.06 238.43,11.58 C239.51,11.1 239.51,11.1 240.65,11.1 Z M267.17,24.72 C270.35,24.9 270.35,24.9 273.2,25.98 C276.05,27.06 276.05,27.06 277.82,28.98 C279.59,30.9 279.59,30.9 279.89,33.57 C280.19,36.24 280.19,36.24 278.27,39.54 C276.95,41.7 276.95,41.7 275.06,42.33 C273.17,42.96 273.17,42.96 270.83,42.96 C269.27,42.96 269.27,42.96 267.74,42.72 C266.21,42.48 266.21,42.48 264.71,42 L264.71,42 L264.5675,41.971875 L264.3275,41.926875 C264.065,41.88 264.065,41.88 263.99,41.88 C263.15,41.88 263.15,41.88 262.76,42.45 C262.37,43.02 262.37,43.02 262.37,43.92 C262.31,44.94 262.31,44.94 262.94,45.6 C263.57,46.26 263.57,46.26 264.53,46.26 C265.01,46.26 265.01,46.26 265.52,46.08 C266.03,45.9 266.03,45.9 266.51,45.42 C267.35,44.58 267.35,44.58 268.55,44.19 C269.75,43.8 269.75,43.8 270.89,43.8 C272.03,43.8 272.03,43.8 273.11,44.25 C274.19,44.7 274.19,44.7 274.85,45.6 C276.05,47.28 276.05,47.28 275.39,50.1 C274.85,52.14 274.85,52.14 273.56,53.49 C272.27,54.84 272.27,54.84 270.59,55.62 C268.91,56.4 268.91,56.4 266.99,56.7 C265.07,57 265.07,57 263.15,57 C260.09,57 260.09,57 257.36,55.86 C254.63,54.72 254.63,54.72 252.83,52.2 C251.15,49.92 251.15,49.92 250.46,46.98 C249.77,44.04 249.77,44.04 249.95,40.86 C250.13,37.74 250.13,37.74 251.09,34.8 C252.05,31.86 252.05,31.86 253.79,29.64 C255.05,28.02 255.05,28.02 256.58,27.03 C258.11,26.04 258.11,26.04 259.82,25.53 C261.53,25.02 261.53,25.02 263.39,24.87 C265.25,24.72 265.25,24.72 267.17,24.72 Z M287.99,24.84 C288.29,24.84 288.29,24.84 288.47,24.9 C290.09,25.02 290.09,25.02 291.08,25.68 C292.07,26.34 292.07,26.34 292.61,27.06 C293.27,27.84 293.27,27.84 293.57,28.86 C294.77,27.06 294.77,27.06 296.57,26.22 C298.37,25.38 298.37,25.38 300.35,25.38 C302.75,25.38 302.75,25.38 304.73,26.34 C305.81,26.88 305.81,26.88 306.71,27.69 C307.61,28.5 307.61,28.5 308.18,29.52 C308.75,30.54 308.75,30.54 308.93,31.83 C309.11,33.12 309.11,33.12 308.81,34.56 C308.39,36.6 308.39,36.6 307.25,38.01 C306.11,39.42 306.11,39.42 303.83,39.42 C302.57,39.42 302.57,39.42 301.31,39 C299.69,38.52 299.69,38.52 298.37,38.52 C296.93,38.52 296.93,38.52 295.82,39.06 C294.71,39.6 294.71,39.6 294.05,40.68 C293.57,41.46 293.57,41.46 293.45,43.08 C293.33,44.7 293.33,44.7 293.33,46.65 C293.33,48.6 293.33,48.6 293.36,50.61 C293.39,52.62 293.39,52.62 293.21,54.18 C293.03,55.68 293.03,55.68 291.8,56.34 C290.57,57 290.57,57 288.95,57 C287.21,57 287.21,57 285.47,56.34 C283.73,55.68 283.73,55.68 282.89,54.48 C282.41,53.76 282.41,53.76 282.11,52.17 C281.81,50.58 281.81,50.58 281.69,48.54 C281.57,46.5 281.57,46.5 281.6,44.25 C281.63,42 281.63,42 281.72,39.96 C281.81,37.92 281.81,37.92 281.96,36.27 C282.11,34.62 282.11,34.62 282.23,33.78 C282.41,32.58 282.41,32.58 282.8,31.05 C283.19,29.52 283.19,29.52 283.85,28.14 C284.51,26.76 284.51,26.76 285.5,25.8 C286.49,24.84 286.49,24.84 287.99,24.84 Z M171.41,37.26 L171.05,37.26 L170.859687,37.2815625 C170.21,37.38 170.21,37.38 169.79,37.8 L169.666042,37.91375 C169.0175,38.56 169.0175,38.56 169.1,39.66 C169.19,40.86 169.19,40.86 169.79,41.88 C170.21,42.66 170.21,42.66 170.84,43.17 C171.47,43.68 171.47,43.68 172.13,43.74 L172.13,43.74 L172.43,43.74 C173.03,43.74 173.03,43.74 173.63,43.59 C174.23,43.44 174.23,43.44 174.68,43.05 C175.13,42.66 175.13,42.66 175.31,42.06 C175.49,41.46 175.49,41.46 175.13,40.56 C174.53,39.06 174.53,39.06 173.72,38.4 C172.91,37.74 172.91,37.74 172.25,37.44 C171.71,37.26 171.71,37.26 171.41,37.26 L171.41,37.26 Z M209.27,37.26 L208.91,37.26 L208.719687,37.2815625 C208.07,37.38 208.07,37.38 207.65,37.8 L207.526042,37.91375 C206.8775,38.56 206.8775,38.56 206.96,39.66 C207.05,40.86 207.05,40.86 207.65,41.88 C208.07,42.66 208.07,42.66 208.7,43.17 C209.33,43.68 209.33,43.68 209.99,43.74 L209.99,43.74 L210.29,43.74 C210.89,43.74 210.89,43.74 211.49,43.59 C212.09,43.44 212.09,43.44 212.54,43.05 C212.99,42.66 212.99,42.66 213.17,42.06 C213.35,41.46 213.35,41.46 212.99,40.56 C212.39,39.06 212.39,39.06 211.58,38.4 C210.77,37.74 210.77,37.74 210.11,37.44 C209.57,37.26 209.57,37.26 209.27,37.26 L209.27,37.26 Z M139.19,36.36 L138.83,36.36 L138.736939,36.3636735 C138.435714,36.3857143 138.435714,36.3857143 137.87,36.54 C137.09,36.84 137.09,36.84 136.19,37.59 C135.29,38.34 135.29,38.34 134.63,40.02 C134.27,41.04 134.27,41.04 134.45,41.73 C134.63,42.42 134.63,42.42 135.11,42.81 C135.59,43.2 135.59,43.2 136.28,43.38 C136.97,43.56 136.97,43.56 137.63,43.56 L137.63,43.56 L137.99,43.56 C139.07,43.5 139.07,43.5 139.97,42.42 C140.87,41.34 140.87,41.34 141.2,40.05 C141.53,38.76 141.53,38.76 141.11,37.65 C140.69,36.54 140.69,36.54 139.19,36.36 L139.19,36.36 Z M168.29,27.18 C167.51,27.18 167.51,27.18 166.67,27.45 C165.83,27.72 165.83,27.72 165.05,28.14 C162.95,29.16 162.95,29.16 161.72,30.9 C160.49,32.64 160.49,32.64 159.83,34.92 C159.35,36.66 159.35,36.66 159.86,37.41 C160.37,38.16 160.37,38.16 161.51,38.16 C162.65,38.16 162.65,38.16 163.97,37.56 C165.29,36.96 165.29,36.96 166.49,36.06 C167.69,35.16 167.69,35.16 168.59,34.05 C169.49,32.94 169.49,32.94 169.85,31.98 C170.57,30.24 170.57,30.24 170.48,29.19 C170.39,28.14 170.39,28.14 169.79,27.66 L169.676667,27.5592593 C169.196667,27.18 169.196667,27.18 168.29,27.18 Z M206.15,27.18 C205.37,27.18 205.37,27.18 204.53,27.45 C203.69,27.72 203.69,27.72 202.91,28.14 C200.81,29.16 200.81,29.16 199.58,30.9 C198.35,32.64 198.35,32.64 197.69,34.92 C197.21,36.66 197.21,36.66 197.72,37.41 C198.23,38.16 198.23,38.16 199.37,38.16 C200.51,38.16 200.51,38.16 201.83,37.56 C203.15,36.96 203.15,36.96 204.35,36.06 C205.55,35.16 205.55,35.16 206.45,34.05 C207.35,32.94 207.35,32.94 207.71,31.98 C208.43,30.24 208.43,30.24 208.34,29.19 C208.25,28.14 208.25,28.14 207.65,27.66 L207.536667,27.5592593 C207.056667,27.18 207.056667,27.18 206.15,27.18 Z M266.03,31.92 C265.01,31.92 265.01,31.92 264.53,32.34 C264.05,32.76 264.05,32.76 263.9,33.33 C263.75,33.9 263.75,33.9 263.87,34.56 C263.99,35.22 263.99,35.22 264.23,35.76 C264.65,36.6 264.65,36.6 265.64,36.93 C266.63,37.26 266.63,37.26 267.47,37.26 C268.13,37.26 268.13,37.26 268.76,37.08 C269.39,36.9 269.39,36.9 269.84,36.57 C270.29,36.24 270.29,36.24 270.47,35.7 C270.65,35.16 270.65,35.16 270.47,34.44 C269.99,33.06 269.99,33.06 268.67,32.49 C267.35,31.92 267.35,31.92 266.03,31.92 Z M144.53,25.14 C143.57,25.14 143.57,25.14 142.91,25.44 C141.89,25.86 141.89,25.86 141.56,27.09 C141.23,28.32 141.23,28.32 142.55,30.78 C143.09,31.74 143.09,31.74 143.99,32.64 C144.89,33.54 144.89,33.54 145.97,34.17 C147.05,34.8 147.05,34.8 148.25,35.19 C149.45,35.58 149.45,35.58 150.59,35.58 C151.73,35.58 151.73,35.58 152.33,35.22 C153.35,34.68 153.35,34.68 153.32,33.42 C153.29,32.16 153.29,32.16 152.48,30.75 C151.67,29.34 151.67,29.34 150.32,27.99 C148.97,26.64 148.97,26.64 147.41,25.86 C145.97,25.14 145.97,25.14 144.53,25.14 Z M260.27,26.76 C259.49,26.76 259.49,26.76 258.83,27.12 C256.91,27.84 256.91,27.84 255.35,29.58 C253.79,31.32 253.79,31.32 253.01,33.18 C252.53,34.38 252.53,34.38 252.86,34.86 C253.19,35.34 253.19,35.34 253.97,35.34 C254.87,35.34 254.87,35.34 256.01,34.89 C257.15,34.44 257.15,34.44 258.2,33.72 C259.25,33 259.25,33 260.09,32.16 C260.93,31.32 260.93,31.32 261.35,30.54 C261.89,29.52 261.89,29.52 262.01,28.8 C262.13,28.08 262.13,28.08 261.89,27.63 C261.65,27.18 261.65,27.18 261.23,26.97 C260.81,26.76 260.81,26.76 260.27,26.76 Z M302.51,27.06 C301.79,27.06 301.79,27.06 301.49,27.66 C301.19,28.26 301.19,28.26 301.85,29.64 C302.15,30.24 302.15,30.24 302.69,30.84 C303.23,31.44 303.23,31.44 303.92,31.95 C304.61,32.46 304.61,32.46 305.39,32.79 C306.17,33.12 306.17,33.12 306.83,33.12 C307.49,33.12 307.49,33.12 307.79,32.7 C308.09,32.28 308.09,32.28 307.79,31.32 C307.61,30.6 307.61,30.6 307.04,29.85 C306.47,29.1 306.47,29.1 305.72,28.47 C304.97,27.84 304.97,27.84 304.13,27.45 C303.29,27.06 303.29,27.06 302.51,27.06 Z M241.73,12.24 C241.55,12.24 241.55,12.24 241.4,12.27 C241.25,12.3 241.25,12.3 241.07,12.3 C240.41,12.42 240.41,12.42 240.08,13.17 C239.75,13.92 239.75,13.92 240.11,15.48 C240.29,16.26 240.29,16.26 240.83,17.16 C241.37,18.06 241.37,18.06 242.12,18.84 C242.87,19.62 242.87,19.62 243.77,20.13 C244.67,20.64 244.67,20.64 245.51,20.64 C246.65,20.64 246.65,20.64 246.59,19.26 C246.53,18.36 246.53,18.36 246.17,17.16 C245.81,15.96 245.81,15.96 245.18,14.88 C244.55,13.8 244.55,13.8 243.68,13.02 C242.81,12.24 242.81,12.24 241.73,12.24 Z M105.89,12.3 C104.21,12.3 104.21,12.3 103.13,12.99 C102.05,13.68 102.05,13.68 102.23,15.3 C102.29,15.96 102.29,15.96 102.89,16.68 C103.49,17.4 103.49,17.4 104.87,18.18 C106.19,18.96 106.19,18.96 107.81,19.32 C109.43,19.68 109.43,19.68 110.99,19.68 C111.65,19.68 111.65,19.68 112.22,19.59 C112.79,19.5 112.79,19.5 113.39,19.38 C115.73,18.84 115.73,18.84 116.09,17.94 C116.45,17.04 116.45,17.04 115.58,16.05 C114.71,15.06 114.71,15.06 112.94,14.16 C111.17,13.26 111.17,13.26 109.19,12.72 C108.35,12.54 108.35,12.54 107.51,12.42 C106.67,12.3 106.67,12.3 105.89,12.3 Z" id="Combined-Shape" stroke="#263240" stroke-width="10" fill="#263240"></path>
                    <ellipse id="Oval" fill="#263240" cx="210" cy="37.5" rx="82" ry="7.5"></ellipse>
                    <g id="Group-2" fill-rule="nonzero">
                        <path d="M94.01,57 C94.61,57 95.3,56.96 96.08,56.88 C96.86,56.8 97.64,56.65 98.42,56.43 C99.2,56.21 99.92,55.92 100.58,55.56 C101.24,55.2 101.75,54.76 102.11,54.24 C102.39,53.84 102.66,53.11 102.92,52.05 C103.18,50.99 103.42,49.76 103.64,48.36 C103.86,46.96 104.07,45.47 104.27,43.89 C104.47,42.31 104.65,40.79 104.81,39.33 C104.97,37.87 105.1,36.55 105.2,35.37 C105.3,34.19 105.37,33.32 105.41,32.76 C106.09,32.84 106.77,32.91 107.45,32.97 C108.13,33.03 108.81,33.06 109.49,33.06 C110.29,33.06 111.1,33.01 111.92,32.91 C112.74,32.81 113.49,32.64 114.17,32.4 C115.09,32.08 115.86,31.27 116.48,29.97 C117.1,28.67 117.57,27.16 117.89,25.44 C118.17,23.8 118.27,22.13 118.19,20.43 C118.11,18.73 117.85,17.3 117.41,16.14 L117.41,16.14 L117.41,16.02 C117.05,15.1 116.38,14.31 115.4,13.65 C114.42,12.99 113.27,12.44 111.95,12 C110.63,11.56 109.2,11.22 107.66,10.98 C106.12,10.74 104.6,10.55 103.1,10.41 C101.6,10.27 100.18,10.18 98.84,10.14 C97.5,10.1 96.39,10.08 95.51,10.08 C94.99,10.08 94.17,10.09 93.05,10.11 C91.93,10.13 90.68,10.19 89.3,10.29 C87.92,10.39 86.49,10.51 85.01,10.65 C83.53,10.79 82.13,10.98 80.81,11.22 C79.49,11.46 78.33,11.75 77.33,12.09 C76.33,12.43 75.65,12.84 75.29,13.32 C74.89,13.84 74.53,14.54 74.21,15.42 C73.85,16.46 73.59,17.67 73.43,19.05 C73.27,20.43 73.25,21.82 73.37,23.22 C73.45,23.94 73.58,24.7 73.76,25.5 C73.94,26.3 74.2,27.06 74.54,27.78 C74.88,28.5 75.32,29.14 75.86,29.7 C76.4,30.26 77.05,30.7 77.81,31.02 C78.93,31.46 80.02,31.76 81.08,31.92 C82.14,32.08 83.13,32.16 84.05,32.16 C84.81,32.16 85.49,32.12 86.09,32.04 C86.69,31.96 87.19,31.88 87.59,31.8 C87.47,32.52 87.31,33.51 87.11,34.77 C86.91,36.03 86.72,37.43 86.54,38.97 C86.36,40.51 86.2,42.11 86.06,43.77 C85.92,45.43 85.85,46.99 85.85,48.45 C85.85,49.91 85.95,51.2 86.15,52.32 C86.35,53.44 86.67,54.26 87.11,54.78 C87.51,55.22 87.99,55.58 88.55,55.86 C89.11,56.14 89.7,56.37 90.32,56.55 C90.94,56.73 91.57,56.85 92.21,56.91 C92.85,56.97 93.45,57 94.01,57 Z M110.99,19.68 C109.95,19.68 108.89,19.56 107.81,19.32 C106.73,19.08 105.75,18.7 104.87,18.18 C103.95,17.66 103.29,17.16 102.89,16.68 C102.49,16.2 102.27,15.74 102.23,15.3 C102.11,14.22 102.41,13.45 103.13,12.99 C103.85,12.53 104.77,12.3 105.89,12.3 C106.41,12.3 106.95,12.34 107.51,12.42 C108.07,12.5 108.63,12.6 109.19,12.72 C110.51,13.08 111.76,13.56 112.94,14.16 C114.12,14.76 115,15.39 115.58,16.05 C116.16,16.71 116.33,17.34 116.09,17.94 C115.85,18.54 114.95,19.02 113.39,19.38 C112.99,19.46 112.6,19.53 112.22,19.59 C111.84,19.65 111.43,19.68 110.99,19.68 Z M134.63,57 C139.59,57 143.81,55.84 147.29,53.52 C150.77,51.2 153.25,47.56 154.73,42.6 C155.61,39.88 155.89,37.22 155.57,34.62 C155.33,32.62 154.8,30.88 153.98,29.4 C153.16,27.92 152.12,26.7 150.86,25.74 C149.6,24.78 148.15,24.06 146.51,23.58 C144.87,23.1 143.11,22.86 141.23,22.86 C141.03,22.86 140.82,22.87 140.6,22.89 C140.38,22.91 140.17,22.92 139.97,22.92 C139.61,22.92 139.26,22.93 138.92,22.95 C138.58,22.97 138.23,23 137.87,23.04 C137.03,23.12 136.02,23.29 134.84,23.55 C133.66,23.81 132.43,24.22 131.15,24.78 C129.87,25.34 128.59,26.08 127.31,27 C126.03,27.92 124.87,29.08 123.83,30.48 C122.79,31.88 121.93,33.56 121.25,35.52 C120.57,37.48 120.19,39.78 120.11,42.42 C120.03,43.58 120.06,44.66 120.2,45.66 C120.34,46.66 120.55,47.6 120.83,48.48 C121.31,50.04 122.02,51.36 122.96,52.44 C123.9,53.52 124.98,54.4 126.2,55.08 C127.42,55.76 128.75,56.25 130.19,56.55 C131.63,56.85 133.11,57 134.63,57 Z M150.59,35.58 C149.83,35.58 149.05,35.45 148.25,35.19 C147.45,34.93 146.69,34.59 145.97,34.17 C145.25,33.75 144.59,33.24 143.99,32.64 C143.39,32.04 142.91,31.42 142.55,30.78 C141.67,29.14 141.34,27.91 141.56,27.09 C141.78,26.27 142.23,25.72 142.91,25.44 C143.35,25.24 143.89,25.14 144.53,25.14 C145.49,25.14 146.45,25.38 147.41,25.86 C148.45,26.38 149.42,27.09 150.32,27.99 C151.22,28.89 151.94,29.81 152.48,30.75 C153.02,31.69 153.3,32.58 153.32,33.42 C153.34,34.26 153.01,34.86 152.33,35.22 C151.93,35.46 151.35,35.58 150.59,35.58 Z M137.99,43.56 L137.63,43.56 C137.19,43.56 136.74,43.5 136.28,43.38 C135.82,43.26 135.43,43.07 135.11,42.81 C134.79,42.55 134.57,42.19 134.45,41.73 C134.33,41.27 134.39,40.7 134.63,40.02 C135.07,38.9 135.59,38.09 136.19,37.59 C136.79,37.09 137.35,36.74 137.87,36.54 C138.31,36.42 138.63,36.36 138.83,36.36 L138.83,36.36 L139.19,36.36 C140.19,36.48 140.83,36.91 141.11,37.65 C141.39,38.39 141.42,39.19 141.2,40.05 C140.98,40.91 140.57,41.7 139.97,42.42 C139.37,43.14 138.71,43.52 137.99,43.56 L137.99,43.56 Z M176.51,57 C177.99,57 179.37,56.86 180.65,56.58 C182.97,56.06 184.95,55.01 186.59,53.43 C188.23,51.85 189.56,49.95 190.58,47.73 C191.6,45.51 192.34,43.09 192.8,40.47 C193.26,37.85 193.5,35.22 193.52,32.58 C193.54,29.94 193.36,27.42 192.98,25.02 C192.6,22.62 192.07,20.54 191.39,18.78 C191.07,17.94 190.74,17.26 190.4,16.74 C190.06,16.22 189.45,15.8 188.57,15.48 C187.45,15.12 186.31,14.94 185.15,14.94 C184.43,14.94 183.67,15.02 182.87,15.18 C182.07,15.34 181.3,15.6 180.56,15.96 C179.82,16.32 179.16,16.77 178.58,17.31 C178,17.85 177.59,18.48 177.35,19.2 C177.15,19.72 177.02,20.34 176.96,21.06 C176.9,21.78 176.88,22.53 176.9,23.31 C176.92,24.09 176.98,24.87 177.08,25.65 C177.18,26.43 177.29,27.16 177.41,27.84 C176.33,27.12 175.17,26.56 173.93,26.16 C172.69,25.76 171.43,25.56 170.15,25.56 C167.75,25.56 165.56,26.24 163.58,27.6 C161.6,28.96 160.09,30.7 159.05,32.82 C158.01,34.9 157.44,36.93 157.34,38.91 C157.24,40.89 157.49,42.78 158.09,44.58 C158.69,46.38 159.6,48.03 160.82,49.53 C162.04,51.03 163.45,52.34 165.05,53.46 C166.73,54.62 168.55,55.5 170.51,56.1 C172.47,56.7 174.47,57 176.51,57 Z M161.51,38.16 C160.75,38.16 160.2,37.91 159.86,37.41 C159.52,36.91 159.51,36.08 159.83,34.92 C160.27,33.4 160.9,32.06 161.72,30.9 C162.54,29.74 163.65,28.82 165.05,28.14 C165.57,27.86 166.11,27.63 166.67,27.45 C167.23,27.27 167.77,27.18 168.29,27.18 C168.97,27.18 169.47,27.34 169.79,27.66 C170.19,27.98 170.42,28.49 170.48,29.19 C170.54,29.89 170.33,30.82 169.85,31.98 C169.61,32.62 169.19,33.31 168.59,34.05 C167.99,34.79 167.29,35.46 166.49,36.06 C165.69,36.66 164.85,37.16 163.97,37.56 C163.09,37.96 162.27,38.16 161.51,38.16 Z M172.43,43.74 L172.13,43.74 C171.69,43.7 171.26,43.51 170.84,43.17 C170.42,42.83 170.07,42.4 169.79,41.88 C169.39,41.2 169.16,40.46 169.1,39.66 C169.04,38.86 169.27,38.24 169.79,37.8 C170.11,37.48 170.53,37.3 171.05,37.26 L171.05,37.26 L171.41,37.26 C171.61,37.26 171.89,37.32 172.25,37.44 C172.69,37.64 173.18,37.96 173.72,38.4 C174.26,38.84 174.73,39.56 175.13,40.56 C175.37,41.16 175.43,41.66 175.31,42.06 C175.19,42.46 174.98,42.79 174.68,43.05 C174.38,43.31 174.03,43.49 173.63,43.59 C173.23,43.69 172.83,43.74 172.43,43.74 L172.43,43.74 Z M214.37,57 C215.85,57 217.23,56.86 218.51,56.58 C220.83,56.06 222.81,55.01 224.45,53.43 C226.09,51.85 227.42,49.95 228.44,47.73 C229.46,45.51 230.2,43.09 230.66,40.47 C231.12,37.85 231.36,35.22 231.38,32.58 C231.4,29.94 231.22,27.42 230.84,25.02 C230.46,22.62 229.93,20.54 229.25,18.78 C228.93,17.94 228.6,17.26 228.26,16.74 C227.92,16.22 227.31,15.8 226.43,15.48 C225.31,15.12 224.17,14.94 223.01,14.94 C222.29,14.94 221.53,15.02 220.73,15.18 C219.93,15.34 219.16,15.6 218.42,15.96 C217.68,16.32 217.02,16.77 216.44,17.31 C215.86,17.85 215.45,18.48 215.21,19.2 C215.01,19.72 214.88,20.34 214.82,21.06 C214.76,21.78 214.74,22.53 214.76,23.31 C214.78,24.09 214.84,24.87 214.94,25.65 C215.04,26.43 215.15,27.16 215.27,27.84 C214.19,27.12 213.03,26.56 211.79,26.16 C210.55,25.76 209.29,25.56 208.01,25.56 C205.61,25.56 203.42,26.24 201.44,27.6 C199.46,28.96 197.95,30.7 196.91,32.82 C195.87,34.9 195.3,36.93 195.2,38.91 C195.1,40.89 195.35,42.78 195.95,44.58 C196.55,46.38 197.46,48.03 198.68,49.53 C199.9,51.03 201.31,52.34 202.91,53.46 C204.59,54.62 206.41,55.5 208.37,56.1 C210.33,56.7 212.33,57 214.37,57 Z M199.37,38.16 C198.61,38.16 198.06,37.91 197.72,37.41 C197.38,36.91 197.37,36.08 197.69,34.92 C198.13,33.4 198.76,32.06 199.58,30.9 C200.4,29.74 201.51,28.82 202.91,28.14 C203.43,27.86 203.97,27.63 204.53,27.45 C205.09,27.27 205.63,27.18 206.15,27.18 C206.83,27.18 207.33,27.34 207.65,27.66 C208.05,27.98 208.28,28.49 208.34,29.19 C208.4,29.89 208.19,30.82 207.71,31.98 C207.47,32.62 207.05,33.31 206.45,34.05 C205.85,34.79 205.15,35.46 204.35,36.06 C203.55,36.66 202.71,37.16 201.83,37.56 C200.95,37.96 200.13,38.16 199.37,38.16 Z M210.29,43.74 L209.99,43.74 C209.55,43.7 209.12,43.51 208.7,43.17 C208.28,42.83 207.93,42.4 207.65,41.88 C207.25,41.2 207.02,40.46 206.96,39.66 C206.9,38.86 207.13,38.24 207.65,37.8 C207.97,37.48 208.39,37.3 208.91,37.26 L208.91,37.26 L209.27,37.26 C209.47,37.26 209.75,37.32 210.11,37.44 C210.55,37.64 211.04,37.96 211.58,38.4 C212.12,38.84 212.59,39.56 212.99,40.56 C213.23,41.16 213.29,41.66 213.17,42.06 C213.05,42.46 212.84,42.79 212.54,43.05 C212.24,43.31 211.89,43.49 211.49,43.59 C211.09,43.69 210.69,43.74 210.29,43.74 L210.29,43.74 Z M239.39,57 C240.07,57 240.68,56.86 241.22,56.58 C241.76,56.3 242.26,55.94 242.72,55.5 C243.18,55.06 243.58,54.56 243.92,54 C244.26,53.44 244.55,52.88 244.79,52.32 C245.35,51 245.84,49.44 246.26,47.64 C246.68,45.84 247.04,43.9 247.34,41.82 C247.64,39.74 247.87,37.61 248.03,35.43 C248.19,33.25 248.28,31.12 248.3,29.04 C248.32,26.96 248.27,25 248.15,23.16 C248.03,21.32 247.85,19.74 247.61,18.42 C247.45,17.54 247.18,16.67 246.8,15.81 C246.42,14.95 245.94,14.17 245.36,13.47 C244.78,12.77 244.1,12.2 243.32,11.76 C242.54,11.32 241.65,11.1 240.65,11.1 C239.89,11.1 239.15,11.26 238.43,11.58 C237.71,11.9 237.06,12.38 236.48,13.02 C235.9,13.66 235.42,14.46 235.04,15.42 C234.66,16.38 234.41,17.5 234.29,18.78 C234.21,19.66 234.07,21.14 233.87,23.22 C233.67,25.3 233.51,27.66 233.39,30.3 C233.27,32.94 233.2,35.71 233.18,38.61 C233.16,41.51 233.27,44.21 233.51,46.71 C233.75,49.21 234.15,51.35 234.71,53.13 C235.27,54.91 236.05,56.02 237.05,56.46 C237.89,56.82 238.67,57 239.39,57 Z M245.51,20.64 C244.95,20.64 244.37,20.47 243.77,20.13 C243.17,19.79 242.62,19.36 242.12,18.84 C241.62,18.32 241.19,17.76 240.83,17.16 C240.47,16.56 240.23,16 240.11,15.48 C239.87,14.44 239.86,13.67 240.08,13.17 C240.3,12.67 240.63,12.38 241.07,12.3 C241.19,12.3 241.3,12.29 241.4,12.27 C241.5,12.25 241.61,12.24 241.73,12.24 C242.45,12.24 243.1,12.5 243.68,13.02 C244.26,13.54 244.76,14.16 245.18,14.88 C245.6,15.6 245.93,16.36 246.17,17.16 C246.41,17.96 246.55,18.66 246.59,19.26 C246.63,20.18 246.27,20.64 245.51,20.64 Z M263.15,57 C264.43,57 265.71,56.9 266.99,56.7 C268.27,56.5 269.47,56.14 270.59,55.62 C271.71,55.1 272.7,54.39 273.56,53.49 C274.42,52.59 275.03,51.46 275.39,50.1 C275.83,48.22 275.65,46.72 274.85,45.6 C274.41,45 273.83,44.55 273.11,44.25 C272.39,43.95 271.65,43.8 270.89,43.8 C270.13,43.8 269.35,43.93 268.55,44.19 C267.75,44.45 267.07,44.86 266.51,45.42 C266.19,45.74 265.86,45.96 265.52,46.08 C265.18,46.2 264.85,46.26 264.53,46.26 C263.89,46.26 263.36,46.04 262.94,45.6 C262.52,45.16 262.33,44.6 262.37,43.92 C262.37,43.32 262.5,42.83 262.76,42.45 C263.02,42.07 263.43,41.88 263.99,41.88 C264.04,41.88 264.1525,41.895625 264.3275,41.926875 L264.5675,41.971875 L264.5675,41.971875 L264.71,42 C265.71,42.32 266.72,42.56 267.74,42.72 C268.76,42.88 269.79,42.96 270.83,42.96 C272.39,42.96 273.8,42.75 275.06,42.33 C276.32,41.91 277.39,40.98 278.27,39.54 C279.55,37.34 280.09,35.35 279.89,33.57 C279.69,31.79 279,30.26 277.82,28.98 C276.64,27.7 275.1,26.7 273.2,25.98 C271.3,25.26 269.29,24.84 267.17,24.72 C265.89,24.72 264.63,24.77 263.39,24.87 C262.15,24.97 260.96,25.19 259.82,25.53 C258.68,25.87 257.6,26.37 256.58,27.03 C255.56,27.69 254.63,28.56 253.79,29.64 C252.63,31.12 251.73,32.84 251.09,34.8 C250.45,36.76 250.07,38.78 249.95,40.86 C249.83,42.98 250,45.02 250.46,46.98 C250.92,48.94 251.71,50.68 252.83,52.2 C254.03,53.88 255.54,55.1 257.36,55.86 C259.18,56.62 261.11,57 263.15,57 Z M253.97,35.34 C253.45,35.34 253.08,35.18 252.86,34.86 C252.64,34.54 252.69,33.98 253.01,33.18 C253.53,31.94 254.31,30.74 255.35,29.58 C256.39,28.42 257.55,27.6 258.83,27.12 C259.27,26.88 259.75,26.76 260.27,26.76 C260.63,26.76 260.95,26.83 261.23,26.97 C261.51,27.11 261.73,27.33 261.89,27.63 C262.05,27.93 262.09,28.32 262.01,28.8 C261.93,29.28 261.71,29.86 261.35,30.54 C261.07,31.06 260.65,31.6 260.09,32.16 C259.53,32.72 258.9,33.24 258.2,33.72 C257.5,34.2 256.77,34.59 256.01,34.89 C255.25,35.19 254.57,35.34 253.97,35.34 Z M267.47,37.26 C266.91,37.26 266.3,37.15 265.64,36.93 C264.98,36.71 264.51,36.32 264.23,35.76 C264.07,35.4 263.95,35 263.87,34.56 C263.79,34.12 263.8,33.71 263.9,33.33 C264,32.95 264.21,32.62 264.53,32.34 C264.85,32.06 265.35,31.92 266.03,31.92 C266.91,31.92 267.79,32.11 268.67,32.49 C269.55,32.87 270.15,33.52 270.47,34.44 C270.59,34.92 270.59,35.34 270.47,35.7 C270.35,36.06 270.14,36.35 269.84,36.57 C269.54,36.79 269.18,36.96 268.76,37.08 C268.34,37.2 267.91,37.26 267.47,37.26 Z M288.95,57 C290.03,57 290.98,56.78 291.8,56.34 C292.62,55.9 293.09,55.18 293.21,54.18 C293.33,53.14 293.38,51.95 293.36,50.61 C293.34,49.27 293.33,47.95 293.33,46.65 C293.33,45.35 293.37,44.16 293.45,43.08 C293.53,42 293.73,41.2 294.05,40.68 C294.49,39.96 295.08,39.42 295.82,39.06 C296.56,38.7 297.41,38.52 298.37,38.52 C299.25,38.52 300.23,38.68 301.31,39 C302.15,39.28 302.99,39.42 303.83,39.42 C305.35,39.42 306.49,38.95 307.25,38.01 C308.01,37.07 308.53,35.92 308.81,34.56 C309.01,33.6 309.05,32.69 308.93,31.83 C308.81,30.97 308.56,30.2 308.18,29.52 C307.8,28.84 307.31,28.23 306.71,27.69 C306.11,27.15 305.45,26.7 304.73,26.34 C303.41,25.7 301.95,25.38 300.35,25.38 C299.03,25.38 297.77,25.66 296.57,26.22 C295.37,26.78 294.37,27.66 293.57,28.86 C293.37,28.18 293.05,27.58 292.61,27.06 C292.25,26.58 291.74,26.12 291.08,25.68 C290.42,25.24 289.55,24.98 288.47,24.9 C288.35,24.86 288.19,24.84 287.99,24.84 C286.99,24.84 286.16,25.16 285.5,25.8 C284.84,26.44 284.29,27.22 283.85,28.14 C283.41,29.06 283.06,30.03 282.8,31.05 C282.54,32.07 282.35,32.98 282.23,33.78 C282.15,34.34 282.06,35.17 281.96,36.27 C281.86,37.37 281.78,38.6 281.72,39.96 C281.66,41.32 281.62,42.75 281.6,44.25 C281.58,45.75 281.61,47.18 281.69,48.54 C281.77,49.9 281.91,51.11 282.11,52.17 C282.31,53.23 282.57,54 282.89,54.48 C283.45,55.28 284.31,55.9 285.47,56.34 C286.63,56.78 287.79,57 288.95,57 Z M306.83,33.12 C306.39,33.12 305.91,33.01 305.39,32.79 C304.87,32.57 304.38,32.29 303.92,31.95 C303.46,31.61 303.05,31.24 302.69,30.84 C302.33,30.44 302.05,30.04 301.85,29.64 C301.41,28.72 301.29,28.06 301.49,27.66 C301.69,27.26 302.03,27.06 302.51,27.06 C303.03,27.06 303.57,27.19 304.13,27.45 C304.69,27.71 305.22,28.05 305.72,28.47 C306.22,28.89 306.66,29.35 307.04,29.85 C307.42,30.35 307.67,30.84 307.79,31.32 C307.99,31.96 307.99,32.42 307.79,32.7 C307.59,32.98 307.27,33.12 306.83,33.12 Z" id="Toddler" fill="#FFD088"></path>
                        <path d="M30.12,171 C36.36,171 41.28,169.92 44.88,167.76 C48,166.08 50.43,163.74 52.17,160.74 C53.91,157.74 55.29,154.17 56.31,150.03 C57.33,145.89 58.11,141.18 58.65,135.9 C59.19,130.62 59.76,124.86 60.36,118.62 C60.96,112.98 61.44,106.68 61.8,99.72 C62.16,92.76 62.22,85.86 61.98,79.02 C61.86,74.34 61.41,69.3 60.63,63.9 C59.85,58.5 58.41,53.49 56.31,48.87 C54.21,44.25 51.27,40.41 47.49,37.35 C43.71,34.29 38.82,32.76 32.82,32.76 C29.34,32.76 26.19,33.45 23.37,34.83 C20.55,36.21 18.09,38.07 15.99,40.41 C13.89,42.75 12.18,45.39 10.86,48.33 C9.54,51.27 8.58,54.3 7.98,57.42 C7.26,61.26 6.6,66 6,71.64 C5.4,77.28 4.89,83.37 4.47,89.91 C4.05,96.45 3.81,103.2 3.75,110.16 C3.69,117.12 3.93,123.81 4.47,130.23 C5.01,136.65 5.88,142.59 7.08,148.05 C8.28,153.51 9.9,157.98 11.94,161.46 C14.1,165.18 16.65,167.7 19.59,169.02 C22.53,170.34 26.04,171 30.12,171 Z M53.34,68.4 C52.02,68.4 50.52,67.83 48.84,66.69 C47.16,65.55 45.84,64.56 44.88,63.72 C42.6,61.68 40.77,59.61 39.39,57.51 C38.01,55.41 36.9,53.52 36.06,51.84 C35.1,49.92 34.38,48 33.9,46.08 C33.3,44.28 33.33,42.3 33.99,40.14 C34.65,37.98 36.12,36.9 38.4,36.9 C39.6,36.9 40.86,37.26 42.18,37.98 C43.5,38.7 44.64,39.42 45.6,40.14 C47.88,41.94 49.89,44.43 51.63,47.61 C53.37,50.79 54.66,53.91 55.5,56.97 C56.34,60.03 56.64,62.7 56.4,64.98 C56.16,67.26 55.14,68.4 53.34,68.4 Z M141.09,171 C141.63,171 142.2,170.94 142.8,170.82 L142.8,170.82 L142.98,170.64 C145.02,170.28 147,169.62 148.92,168.66 C150.84,167.7 152.46,166.38 153.78,164.7 C156.3,161.7 158.37,157.83 159.99,153.09 C161.61,148.35 162.66,143.25 163.14,137.79 C163.62,132.33 163.59,126.69 163.05,120.87 C162.51,115.05 161.4,109.53 159.72,104.31 C158.04,99.09 155.82,94.35 153.06,90.09 C150.3,85.83 146.94,82.5 142.98,80.1 C138.42,77.34 133.38,75.96 127.86,75.96 C124.14,75.96 120.6,76.71 117.24,78.21 C113.88,79.71 111,82.08 108.6,85.32 C107.76,80.16 105.75,76.8 102.57,75.24 C99.39,73.68 95.52,72.9 90.96,72.9 C84.36,72.9 79.56,74.67 76.56,78.21 C73.56,81.75 71.58,86.7 70.62,93.06 C69.9,97.38 69.27,102.6 68.73,108.72 C68.19,114.84 67.95,121.11 68.01,127.53 C68.07,133.95 68.55,140.16 69.45,146.16 C70.35,152.16 71.82,157.2 73.86,161.28 C75.3,164.04 77.49,166.02 80.43,167.22 C83.37,168.42 86.34,169.02 89.34,169.02 C90.78,169.02 92.34,168.87 94.02,168.57 C95.7,168.27 97.26,167.76 98.7,167.04 C100.14,166.32 101.4,165.36 102.48,164.16 C103.56,162.96 104.22,161.52 104.46,159.84 C104.7,158.52 104.79,156.93 104.73,155.07 C104.67,153.21 104.52,151.14 104.28,148.86 C104.16,146.94 104.01,144.87 103.83,142.65 C103.65,140.43 103.56,138.24 103.56,136.08 C103.56,133.92 103.71,131.82 104.01,129.78 C104.31,127.74 104.82,125.94 105.54,124.38 C106.5,122.34 107.58,120.93 108.78,120.15 C109.98,119.37 111.24,118.98 112.56,118.98 C113.88,118.98 115.17,119.37 116.43,120.15 C117.69,120.93 118.86,121.92 119.94,123.12 C121.02,124.32 121.92,125.7 122.64,127.26 C123.36,128.82 123.78,130.44 123.9,132.12 C124.38,136.32 124.53,140.58 124.35,144.9 C124.17,149.22 123.96,152.76 123.72,155.52 L123.72,155.52 L123.72,156.96 C123.36,159.96 124.08,162.66 125.88,165.06 C127.44,167.1 129.45,168.6 131.91,169.56 C134.37,170.52 136.86,171 139.38,171 L139.38,171 L141.09,171 Z M150.18,112.86 C148.26,112.86 146.34,112.23 144.42,110.97 C142.5,109.71 140.7,108.12 139.02,106.2 C137.34,104.28 135.9,102.27 134.7,100.17 C133.5,98.07 132.72,96.18 132.36,94.5 C131.4,90.54 131.37,87.66 132.27,85.86 C133.17,84.06 134.46,83.16 136.14,83.16 C138.18,83.16 140.46,84.12 142.98,86.04 C145.74,87.96 148.23,90.66 150.45,94.14 C152.67,97.62 153.96,101.46 154.32,105.66 C154.56,108.18 154.29,110.01 153.51,111.15 C152.73,112.29 151.62,112.86 150.18,112.86 Z M210.12,171 C216.84,171 222.57,169.5 227.31,166.5 C232.05,163.5 236.01,159.63 239.19,154.89 C242.37,150.15 244.83,144.87 246.57,139.05 C248.31,133.23 249.54,127.56 250.26,122.04 C251.22,113.76 251.4,106.14 250.8,99.18 C250.56,95.1 250.02,91.56 249.18,88.56 C248.22,84.72 246.69,82.11 244.59,80.73 C242.49,79.35 239.7,78.18 236.22,77.22 C234.9,76.86 233.58,76.56 232.26,76.32 C230.94,76.08 229.62,75.96 228.3,75.96 C225.66,75.96 223.32,76.53 221.28,77.67 C219.24,78.81 217.86,80.7 217.14,83.34 C216.54,85.5 216.15,88.32 215.97,91.8 C215.79,95.28 215.58,99 215.34,102.96 L215.34,102.96 L214.98,111.6 C214.86,114.48 214.65,117.18 214.35,119.7 C214.05,122.22 213.66,124.38 213.18,126.18 C212.7,127.98 212.1,129.24 211.38,129.96 C210.9,130.56 210.36,130.86 209.76,130.86 C208.68,130.86 207.87,129.81 207.33,127.71 C206.79,125.61 206.4,123 206.16,119.88 C205.92,117.36 205.77,114.72 205.71,111.96 C205.65,109.2 205.65,106.44 205.71,103.68 C205.77,100.92 205.86,98.28 205.98,95.76 C206.1,93.24 206.22,91.08 206.34,89.28 C206.58,88.44 206.58,87.66 206.34,86.94 C206.22,84.42 205.62,82.29 204.54,80.55 C203.46,78.81 202.05,77.4 200.31,76.32 C198.57,75.24 196.65,74.49 194.55,74.07 C192.45,73.65 190.26,73.44 187.98,73.44 C187.14,73.44 186.48,73.5 186,73.62 C182.28,73.62 179.28,74.94 177,77.58 C174.72,80.22 172.95,83.4 171.69,87.12 C170.43,90.84 169.59,94.71 169.17,98.73 C168.75,102.75 168.48,106.14 168.36,108.9 C168.12,114.54 168.33,120.57 168.99,126.99 C169.65,133.41 171.18,139.5 173.58,145.26 C176.7,153.42 181.35,159.75 187.53,164.25 C193.71,168.75 201.24,171 210.12,171 Z M176.1,104.58 C174.42,104.58 173.37,103.56 172.95,101.52 C172.53,99.48 172.59,97.11 173.13,94.41 C173.67,91.71 174.66,88.95 176.1,86.13 C177.54,83.31 179.28,81.12 181.32,79.56 C182.28,78.72 183.36,78 184.56,77.4 C185.76,76.8 187.02,76.5 188.34,76.5 C190.62,76.5 192.21,77.43 193.11,79.29 C194.01,81.15 194.16,82.92 193.56,84.6 C193.08,86.4 192.42,88.2 191.58,90 C190.86,91.56 189.84,93.27 188.52,95.13 C187.2,96.99 185.46,98.82 183.3,100.62 C182.34,101.34 181.17,102.18 179.79,103.14 C178.41,104.1 177.18,104.58 176.1,104.58 Z" id="Inu" fill="#FEA926"></path>
                    </g>
                </g>
            </g>
        </g>
    </g>
</svg>